# Blender 3.6.5
# www.blender.org
mtllib Grass.mtl
o Grasstexture
v -0.093268 -0.500000 0.449397
v 0.345103 -0.500000 -0.449397
v -0.093268 0.500000 0.449397
v 0.345103 0.500000 -0.449397
vn 0.8988 -0.0000 0.4384
vt 0.000000 0.000000
vt 1.000000 0.000000
vt 1.000000 1.000000
vt 0.000000 1.000000
s 0
usemtl Grasstexture
f 1/1/1 2/2/1 4/3/1 3/4/1
o Grasstexture.001
v 0.161332 -0.500000 0.428584
v -0.353706 -0.500000 -0.428584
v 0.161332 0.500000 0.428584
v -0.353706 0.500000 -0.428584
vn 0.8572 -0.0000 -0.5150
vt 0.000000 0.000000
vt 1.000000 0.000000
vt 1.000000 1.000000
vt 0.000000 1.000000
s 0
usemtl Grasstexture.001
f 5/5/2 6/6/2 8/7/2 7/8/2
o Grasstexture.002
v -0.520819 -0.500000 -0.253261
v 0.479181 -0.500000 -0.253261
v -0.520819 0.500000 -0.253261
v 0.479181 0.500000 -0.253261
vn -0.0000 -0.0000 1.0000
vt 0.000000 0.000000
vt 1.000000 0.000000
vt 1.000000 1.000000
vt 0.000000 1.000000
s 0
usemtl Grasstexture.002
f 9/9/3 10/10/3 12/11/3 11/12/3
